<svg id="Website" xmlns="http://www.w3.org/2000/svg" viewBox="0 0 162 162"><defs><style>.cls-1,.cls-2,.cls-3,.cls-4,.cls-5{fill:#fff;}.cls-1{opacity:0.3;}.cls-2{opacity:0.2;}.cls-3{opacity:0.5;}.cls-4{opacity:0.1;}.cls-5{opacity:0.4;}</style></defs><title>bg</title><rect class="cls-1" x="7.91" y="7.91" width="38.18" height="38.18" transform="translate(-11.18 27) rotate(-45)"/><rect class="cls-2" x="7.91" y="61.91" width="38.18" height="38.18" transform="translate(-49.37 42.82) rotate(-45)"/><rect class="cls-2" x="7.91" y="115.91" width="38.18" height="38.18" transform="translate(-87.55 58.63) rotate(-45)"/><rect class="cls-3" x="34.91" y="34.91" width="38.18" height="38.18" transform="translate(-22.37 54) rotate(-45)"/><rect class="cls-4" x="34.91" y="88.91" width="38.18" height="38.18" transform="translate(-60.55 69.82) rotate(-45)"/><rect class="cls-5" x="34.91" y="142.91" width="38.18" height="38.18" transform="translate(-98.74 85.63) rotate(-45)"/><rect class="cls-1" x="61.91" y="7.91" width="38.18" height="38.18" transform="translate(4.63 65.18) rotate(-45)"/><rect class="cls-5" x="34.91" y="-19.09" width="38.18" height="38.18" transform="translate(15.82 38.18) rotate(-45)"/><rect class="cls-2" x="88.91" y="34.91" width="38.18" height="38.18" transform="translate(-6.55 92.18) rotate(-45)"/><rect class="cls-5" x="88.91" y="88.91" width="38.18" height="38.18" transform="translate(-44.74 108) rotate(-45)"/><rect class="cls-2" x="88.91" y="142.91" width="38.18" height="38.18" transform="translate(-82.92 123.82) rotate(-45)"/><rect class="cls-2" x="88.91" y="-19.09" width="38.18" height="38.18" transform="translate(31.63 76.37) rotate(-45)"/><rect class="cls-5" x="142.91" y="34.91" width="38.18" height="38.18" transform="translate(9.26 130.37) rotate(-45)"/><rect class="cls-1" x="142.91" y="88.91" width="38.18" height="38.18" transform="translate(-28.92 146.18) rotate(-45)"/><rect class="cls-3" x="142.91" y="142.91" width="38.18" height="38.18" transform="translate(-67.1 162) rotate(-45)"/><rect class="cls-3" x="142.91" y="-19.09" width="38.18" height="38.18" transform="translate(47.45 114.55) rotate(-45)"/><rect class="cls-5" x="-19.09" y="34.91" width="38.18" height="38.18" transform="translate(-38.18 15.82) rotate(-45)"/><rect class="cls-1" x="-19.09" y="88.91" width="38.18" height="38.18" transform="translate(-76.37 31.63) rotate(-45)"/><rect class="cls-3" x="-19.09" y="142.91" width="38.18" height="38.18" transform="translate(-114.55 47.45) rotate(-45)"/><rect class="cls-3" x="-19.09" y="-19.09" width="38.18" height="38.18" transform="translate(0 0) rotate(-45)"/><rect class="cls-1" x="61.91" y="61.91" width="38.18" height="38.18" transform="translate(-33.55 81) rotate(-45)"/><rect class="cls-3" x="61.91" y="115.91" width="38.18" height="38.18" transform="translate(-71.74 96.82) rotate(-45)"/><rect class="cls-4" x="115.91" y="7.91" width="38.18" height="38.18" transform="translate(20.45 103.37) rotate(-45)"/><rect class="cls-3" x="115.91" y="61.91" width="38.18" height="38.18" transform="translate(-17.74 119.18) rotate(-45)"/><rect class="cls-4" x="115.91" y="115.91" width="38.18" height="38.18" transform="translate(-55.92 135) rotate(-45)"/></svg>