<svg id="Website" xmlns="http://www.w3.org/2000/svg" viewBox="0 0 370 284"><defs><style>.cls-1{fill:#fff;}</style></defs><title>e-maerke</title><path id="e-maerke" class="cls-1" d="M46.77,102H4.39A4.11,4.11,0,0,1,.88,95.78C7.13,85.59,22.36,64.4,51.37,43.2l.06,0c1-.87,31.55-27.54,85.42-38.53,0,0,74.74-17.62,147,15.89,0,0,60.42,30.16,85.67,75.41a4.11,4.11,0,0,1-3.6,6.1H347.81a16.37,16.37,0,0,1-14.24-8.23c-5.32-9.35-17.06-25.57-41.1-42.79,0,0-43.43-32.07-111.56-25.3,0,0-38.84,2.83-70.93,23l-.07,0c-.9.43-20.4,10.1-48.78,46.35a18.23,18.23,0,0,1-14.36,7m276.46,16.69a18.23,18.23,0,0,0-14.36,7c-28.18,36-47.6,45.78-48.76,46.35l-.12.06C227.91,192.21,189.1,195,189.1,195c-68.14,6.77-111.56-25.3-111.56-25.3-24-17.22-35.78-33.43-41.1-42.79a16.37,16.37,0,0,0-14.24-8.23H4.13a4.11,4.11,0,0,0-3.6,6.1c25.25,45.26,85.67,75.41,85.67,75.41,72.22,33.52,147,15.89,147,15.89,53.64-10.94,84.18-37.44,85.41-38.52l.09-.07c29-21.19,44.22-42.38,50.47-52.56a4.11,4.11,0,0,0-3.51-6.25H323.23m-175.82-5.55a38.07,38.07,0,0,0,.45,5.83L214,89.14a37.65,37.65,0,0,0-66.63,24m99,15.06A3.66,3.66,0,0,1,249.9,133a67.09,67.09,0,1,1-1.29-44.21,7.42,7.42,0,0,1-3.83,9.31l-88.35,39.64c17.16,19.62,40.49,11.19,40.49,11.19A37.13,37.13,0,0,0,216,134.57a14.57,14.57,0,0,1,11.89-6.23ZM114.17,252.42v31h5.64V260.47a6.85,6.85,0,0,1,2.55-3,7.75,7.75,0,0,1,4.24-1.06,5.61,5.61,0,0,1,4.65,2q1.62,2,1.62,6.37v18.59h5.67V263.51a8.74,8.74,0,0,1,2.11-5.07,6,6,0,0,1,4.68-2,5.74,5.74,0,0,1,4.7,1.91q1.57,1.9,1.57,6.49v18.59h5.65V264.88q0-6.53-2.75-9.78a9.29,9.29,0,0,0-7.48-3.25,10.17,10.17,0,0,0-5.61,1.55,11.47,11.47,0,0,0-3.87,4.18,8.7,8.7,0,0,0-3.34-4.3,9.6,9.6,0,0,0-5.31-1.43,11.58,11.58,0,0,0-5.43,1.22,10.56,10.56,0,0,0-3.85,3.43l-.4-4.07Zm82,3.87q3.67,0,5.39,2.21a9,9,0,0,1,1.72,5.7v.89H188.7l-.06-.14a11.05,11.05,0,0,1,2.29-6.23,6.4,6.4,0,0,1,5.21-2.42m-21.85,23.29a6,6,0,0,1-4.21-1.33,4.47,4.47,0,0,1-1.43-3.44,4.91,4.91,0,0,1,1.93-3.91,8.2,8.2,0,0,1,5.37-1.6h6.5v6.17a10.46,10.46,0,0,1-3.61,2.87,9.86,9.86,0,0,1-4.55,1.24m23.2,4.44a17.44,17.44,0,0,0,6.7-1.12,16.47,16.47,0,0,0,4.21-2.39l-1.92-4a25.4,25.4,0,0,1-4.14,2.24,12.75,12.75,0,0,1-4.86.79q-4.44,0-6.69-2.83a11.57,11.57,0,0,1-2.28-7.37l.06-.14h20.31v-3.41q0-6.53-3.31-10.26t-9.44-3.72a12.48,12.48,0,0,0-5.4,1.19,13,13,0,0,0-4.34,3.34,9.19,9.19,0,0,0-3.94-3.37,15.6,15.6,0,0,0-14.52,1.43,7.63,7.63,0,0,0-3.14,6.54l.06.17,5.38.52a5,5,0,0,1,1.75-3.81,6.75,6.75,0,0,1,4.7-1.57A5.31,5.31,0,0,1,181,258a7.14,7.14,0,0,1,1.47,4.77v2.44H175.9q-6.3,0-9.6,2.48a8.26,8.26,0,0,0-3.29,7,8.91,8.91,0,0,0,2.65,6.82q2.65,2.49,7.52,2.49a17.77,17.77,0,0,0,7.78-1.55,12.25,12.25,0,0,0,4.8-3.81,12.54,12.54,0,0,0,4.87,4,16.16,16.16,0,0,0,6.87,1.39m32.91-31.85a8.49,8.49,0,0,0-.95-.21,6.91,6.91,0,0,0-1.2-.1,7.6,7.6,0,0,0-4.45,1.35,10.73,10.73,0,0,0-3.25,3.75l-.54-4.53h-5v31h5.64V261.27a6.8,6.8,0,0,1,2.36-3,6.48,6.48,0,0,1,3.77-1.06l2.89.17Zm24.06,31.25h6.64L249,266.49l10.6-14.07h-6.76l-8.48,12.2h-3.61V238.73H235.1v44.68h5.64V269.06h3.67Zm22.11-27.13a6.34,6.34,0,0,1,5.27,2.23,8.6,8.6,0,0,1,1.78,5.54v.74H269.33l-.06-.14a11.28,11.28,0,0,1,2.46-6,6.13,6.13,0,0,1,4.84-2.38m.86,27.73a17.62,17.62,0,0,0,6.59-1.1,13.08,13.08,0,0,0,4.38-2.74l-2.21-3.67a11.49,11.49,0,0,1-3.74,2.25,14.18,14.18,0,0,1-5,.82,7.21,7.21,0,0,1-6.1-2.87,12.16,12.16,0,0,1-2.26-7.33l.09-.14h20.11v-3.52q0-6.3-3.21-10.08t-9.48-3.78a12.13,12.13,0,0,0-9.33,4.4,15.89,15.89,0,0,0-3.94,11v1.26q0,6.87,3.82,11.19a13.09,13.09,0,0,0,10.3,4.31M72.95,256.29a6.34,6.34,0,0,1,5.27,2.23A8.6,8.6,0,0,1,80,264.05v.74H65.7l-.06-.14a11.28,11.28,0,0,1,2.46-6,6.13,6.13,0,0,1,4.84-2.38M73.81,284a17.63,17.63,0,0,0,6.59-1.1,13.08,13.08,0,0,0,4.38-2.74l-2.21-3.67a11.49,11.49,0,0,1-3.74,2.25,14.18,14.18,0,0,1-5,.82,7.21,7.21,0,0,1-6.1-2.87,12.16,12.16,0,0,1-2.26-7.33l.09-.14H85.64v-3.52q0-6.3-3.21-10.08t-9.48-3.78a12.13,12.13,0,0,0-9.33,4.4,15.89,15.89,0,0,0-3.94,11v1.26q0,6.87,3.82,11.19A13.08,13.08,0,0,0,73.81,284m223.6-39.07v7.48h-4.93v4.18h4.93v18.82q0,4.45,2,6.52a7.31,7.31,0,0,0,5.47,2.07,9.21,9.21,0,0,0,2.45-.33,5,5,0,0,0,1.85-.84l-.75-3.87a6.28,6.28,0,0,1-1,.29,5.39,5.39,0,0,1-1.07.12,3.26,3.26,0,0,1-2.39-.89,4.22,4.22,0,0,1-.9-3.07V256.6h5.87v-4.18H303v-7.48ZM92.61,269.56h15v-3.95h-15Z"/></svg>