<svg id="Website" xmlns="http://www.w3.org/2000/svg" viewBox="0 0 60 60"><defs><style>.cls-1{fill:#4d4d4d;}</style></defs><title>logo</title><path class="cls-1" d="M47.56,43.31l-.37.45q.41-.57.85-1.14c.27-.39.51-.81.78-1.22a27.72,27.72,0,0,0,1.44-2.55c-1.26,1.8-2.81,3.46-4.18,5.05-.75.74-1.34,1.58-2,2.33a14.43,14.43,0,0,0-.8,1.23,7.73,7.73,0,0,0-.68,1.27,1.5,1.5,0,0,0-1.07-.07A7.82,7.82,0,0,0,40,49c-.49.19-1,.32-1.35.46s-.59.26-.58.33a6,6,0,0,1-1.05.71l-1.13.63q.8-.41,1.56-.82-.76.42-1.56.82a15.86,15.86,0,0,1-8.39,1.35,19.32,19.32,0,0,1-8.47-3,23.17,23.17,0,0,1-5.91-5.24,18.74,18.74,0,0,1-3.53-7,12.76,12.76,0,0,1-.34-1.42,12.6,12.6,0,0,0,.32,1.6,18.52,18.52,0,0,1-1.93-5.51,2.66,2.66,0,0,0-.38,1.22,8.69,8.69,0,0,1,0-1,6.32,6.32,0,0,1-.49-1.91c0-.75,0-1.52-.11-2,.2.23.32-.53.47-1.19l-.19.24a24.72,24.72,0,0,1,2.25-7.5,1.19,1.19,0,0,1,.49-.54c.34-.65.6-1.35,1-2,.16.31,1.3-1.3.84-.35a6.44,6.44,0,0,1,.59-1.09c.25-.33.51-.64.77-1,.5-.66,1.08-1.21,1.55-1.88A25.79,25.79,0,0,1,30.56,6.56l-.14-.12c.53,0,1.06-.09,1.58-.12l1.6,0a7.6,7.6,0,0,1,1.68.17,7.29,7.29,0,0,1,1.8.52c.48.06,1,.15,1.55.24s1.05.28,1.56.4a9.36,9.36,0,0,0,2.39.45l1.35.7c.39.23.74.42,1.1.61s.72.38,1.11.61.76.54,1.22.9c-.11-.32.37,0,.8.26s.75.5.47,0c-.86-1.37-1.16-1.17-2-2.31l0,.11A26.06,26.06,0,0,0,29.06,2.1c-4.34.37-9.1,1.27-13,3.61l-1.57,1c-.53.33-1,.75-1.49,1.12a25.31,25.31,0,0,0-2.74,2.48A15.62,15.62,0,0,0,9,11.66c-.37.47-.77.9-1.09,1.37L7,14.43l-.44.68-.36.7a13.18,13.18,0,0,1-1.52,2.05A28.1,28.1,0,0,0,2,30.4a1.06,1.06,0,0,1,0-.21c.08,1.13,0,2.13.07,3.12l.12,1.5.09.78.19.79c.09,0,.17.3.26.46-.18.23.82,3.42,2.6,6.23A45,45,0,0,0,9.65,48.5l.5.48C13.11,52.43,17,55.63,21,56.81a15.16,15.16,0,0,0,2.66.1c.65.35.85,0,1.68.19a4.85,4.85,0,0,0,2.31.8c.45,0,.5-.16,0-.34a38.14,38.14,0,0,0,5.11-.17c.71-.17,1.42-.32,2.13-.52a1.78,1.78,0,0,1,1.3-.05c1.53-.49,1.12-.18,2.75-.65a4.84,4.84,0,0,0,2.11-1l1.26-.82a4.41,4.41,0,0,1,.72-.5l-.21.18c1.7-.89,3.09-1.19,4.62-2.38a26,26,0,0,0,5.56-6.08,33.46,33.46,0,0,0,3.37-7.22c-.28-.14-.3,1.06-.7,1a27,27,0,0,0,2-8.59c.13-.54.22-1.2.32-1.45.07-1-.18-.56-.17-1.27l.27-.12c-.31-1,.12-1.54-.13-2.51-.12,0-.18-.39-.24-.73.29-.08-.27-1,0-1.05h0a3,3,0,0,1-.11-.61l-.38-.75c-.2-.37-.5-.82-.77-1.27l-.78-1.23c-.25-.34-.45-.58-.52-.66l0-.19c-.24-.49-.54-.61-.45-.3L54.35,18l.05.06-.27-.61c0-.12,0-.31.23-.2a3.12,3.12,0,0,1-.69-1,15.49,15.49,0,0,1,.88,3.38,14.82,14.82,0,0,1-.7-1.57A11.54,11.54,0,0,0,53,15.5c-.13-.16-.45-.12-.6-.57.06-.31-.31-.42-.41-.82a3.74,3.74,0,0,1,.81,1c.21-.23-.49-1-.63-1.33-.17-.08-.61-.85-1-1.23.36,0-.17-.44-.28-.77s-.46-.41-.43-.23c-.29.1.85,1.2.28,1,0-.19-.5-.69-.77-1-.12.1.09.27-.19.19-.26-.34-.7-.54-.75-.84.08,0,.18.18.26.27-.38-.45,2.79,1.59,2.24,1.12,0,.2-2.84-1.78-2.58-1.48s-.36,0-.16.31l.39.15c.28.39.21.72,0,.67-.53-.62,2.3,1,1.73.58,0,.09.09.17.13.26a2.56,2.56,0,0,1-.93-1c-.11.1-.42-.15-.68-.36l-.06-.1c-.28-.19-.57-.56-.57-.26.67.71.16.74-.34.78s-1,.11-.44.79c-.26-.79.42-.05,1,.51a1.79,1.79,0,0,0,.38,1c.31.37.27.15.39.18.1.27.36.72.17.77.39.18.25.56.57.89s.06-.07.31.1c.3.52.7,1.27.91,1.7,0,.24,0,.86-.46.63-.42-.78.54.09,0-.68-.13.53-.51-.66-.84-.65A2.72,2.72,0,0,0,51,18.39v-.11a3.25,3.25,0,0,1,.74,1.61c-.17,0-.17.18-.33-.09l.23.55c.07.05.14.1.1-.06a1.11,1.11,0,0,1,.3.72c-.1.08,1.64,2.79,1.45,2.76.11.42-.07.57.17,1a8.4,8.4,0,0,0-.7-1.86,13.1,13.1,0,0,0-.75-1.4c0,.21.61,1.26,1.05,2.39.22.57.44,1.14.59,1.59a1.79,1.79,0,0,1,.11.87c.06.32.14.7.27.6,0,.55-.29-.12-.37.27,0,0,.07,0,.08.08l-.13.39c.3.81.07,2.05.36,2.93a4.74,4.74,0,0,1-.59-1.09l.07-.1c0-.08-.12-.53-.26-.51a3.61,3.61,0,0,0,.13,1.52c0,.1-.09.22-.13.3h.06c-.1.18-.11.16-.16.09l0,0c-.44.3.21,2.05-.21,3,0,.29.07,0,.1.39-.26.95-.63,1.55-.94,2.5.1.36.16.41.43.08a5,5,0,0,1-.27.72c-.23-.79-.91,1.19-1.11.32a1.94,1.94,0,0,0-.4,1c.1.08.27.22,0,.7-.46.6-.33.47-.72.95-.2.06-.16-.17-.29-.2-.19.93-.65.56-1.05,1.3-.23.48-.75,1.4-.56,1.56C47.86,43.62,47.7,43.5,47.56,43.31Z"/><path class="cls-1" d="M41.19,29v-.83l-.12-2.53C41,24.81,41,23.88,40.9,23L38.83,24.5,35.41,27c-.91.62-1.81,1.26-2.71,1.91C30.86,30.23,29,31.59,27.27,33c-1.57,1.26-4.4,3.44-4.45,4.66.53-.36,1-.88,1.57-1.2a5.8,5.8,0,0,1-.47.67,4.2,4.2,0,0,0,.62-.5,1,1,0,0,0-.27.46,3.85,3.85,0,0,0,.71-.75,4.48,4.48,0,0,1,.68-.78,13.49,13.49,0,0,0-.89,1.37c.14-.1.27-.21.42-.3-.11.19-.42.46-.44.62.33-.27.6-.55,1-.81a6.36,6.36,0,0,0,.8-.64,5.54,5.54,0,0,0-.82,1,2.08,2.08,0,0,0,.47-.36.09.09,0,0,0,0,.07c.07-.05.17-.1.24-.16s0,0,.05.06l0,0,.08,0c1-.44,1.25-.71,1.36-1,.62-.48.58-.08,1.75-1.27.78-.79,1.83-1.18,2.68-2A38.39,38.39,0,0,1,37.18,28l.6-.38.4-.24.7-.43.31-.19s0,0,0,0V28.9c0,.47,0,.93,0,1.41A23.76,23.76,0,0,1,38,38a9.72,9.72,0,0,1-.69,1.54,14.92,14.92,0,0,1-.73,1.31,9,9,0,0,0-.63,1,12.9,12.9,0,0,0,1.48-2,24.51,24.51,0,0,0,1.25-2.45,9,9,0,0,1-3,4.88A11.32,11.32,0,0,1,30,44.23a8.6,8.6,0,0,0,7.34-3.32A6.9,6.9,0,0,0,38,39.8c.22-.36.42-.81.62-1.23A13.87,13.87,0,0,0,40.1,33.4a14.13,14.13,0,0,1-2.55,7.85A9.29,9.29,0,0,1,32.3,44.4c-3,.54-6.41-.33-9.74-2.12h0l0,0h0l-.54-.29a.37.37,0,0,0-.23,0h0s-.07,0-.08,0,0,0,0-.09.07.05.1.09-.05-.1-.07-.14-.07-.07-.12-.1,0,0,0-.05h0a.09.09,0,0,1,0,0s-.05,0-.06,0,0,0,0,0a.8.8,0,0,0-.2,0s-.06,0,0,.05h0c.11.13-.34.1-.21.25,0-.11.07,0,.14,0a.16.16,0,0,0,0,.13s0,0,.06,0,0,.08,0,.1,0,0,.07.08,0,.13.08.18l.12.07s0,.07-.06.07.08,0,0-.11c0,.09-.08-.06-.14,0a.23.23,0,0,0,.11.14v0s.15.08.17.15,0,0-.06,0l.06,0s0,0,0,0a.1.1,0,0,1,.07.06s.39.15.37.15,0,.07.09.08a2.64,2.64,0,0,0-.41-.2c0,.05.57.26.57.31s.08,0,.09,0,0,0,0,.08a0,0,0,0,1,0,0l0,.05c.11,0,.22.14.34.15a.39.39,0,0,1-.18,0v0s-.07,0-.08,0a.29.29,0,0,0,.18.09l0,0h0s0,0,0,0h0c0,.09.26.09.34.19s0,0,.06,0a1.85,1.85,0,0,0,.27.22c.05,0,.06,0,0-.08l.08.05c-.13,0,.13.16,0,.21a.19.19,0,0,0,.13.07s0-.05.1,0l.12.11s0,0,0,.06.07.11.18.16.21.08.24,0,.08.08.05.11l.07,0a4.08,4.08,0,0,1-.74-.37,1.73,1.73,0,0,0,1.66.63c0,.22.51.48.54.43h.38a17.14,17.14,0,0,1,2.47.49,7.71,7.71,0,0,0,1.15.18c.46.06.92.1,1.18.11h.22l-.25,0,.86-.18a.56.56,0,0,0-.18-.1l.14,0a2.89,2.89,0,0,1,.51-.18h0s.08,0,.17,0l0,0a5.81,5.81,0,0,0,1.07-.2.16.16,0,0,1,.1,0l.29-.11c0,.07.26,0,.13.06.2-.13.45-.14.62-.31a7.21,7.21,0,0,0,1.08-.54A9.56,9.56,0,0,0,36.5,44c4-3,4.41-6.8,4.62-11.68,0,0,0-.09,0-.15,0-.79.07-1.57.07-2.36Zm-20,12.52s.07,0,.16,0,0,.08,0,.09,0,0,0,0v0l0,0h0s0-.07-.07-.09l0,0-.05,0h0s0,0,0,0S21.23,41.53,21.24,41.54Z"/><path class="cls-1" d="M30.86,36.79l-.08-.12a6.19,6.19,0,0,1,.85.85,10.27,10.27,0,0,0-1.45-1.93l.91.79a.4.4,0,0,0,.23.07c.38.34.78.67,1.12.92l-1.08-.92a.81.81,0,0,0,.37-.09l.69.65a3.11,3.11,0,0,0-.57-.77.14.14,0,0,0-.06-.16l-.36-.31-1-1.12-.3-.33,0,0a6.72,6.72,0,0,0,1.51,1.3,23.55,23.55,0,0,0-2.36-2.49c-1.63-1.66-3-3.35-3-3.35a24,24,0,0,0-2.64-2.46,18.12,18.12,0,0,0,3.55-.42,7.53,7.53,0,0,0,3.61-1.68l.33-.34a2.68,2.68,0,0,0,.25-.41,3.75,3.75,0,0,0,.22-.43l.11-.47a4.16,4.16,0,0,0-1-3.54,9.88,9.88,0,0,0-5.15-3,13.62,13.62,0,0,0-3.28-.33c-.28,0-1.77.08-1.77.08a11.46,11.46,0,0,1-1.35.1l.21.07c-.63.06-1.19.13-1.64.2l1.67,0,.14,0a6.19,6.19,0,0,1-1.21,0,10.27,10.27,0,0,0,2.39.35l-1.2.08a.4.4,0,0,0-.22.11c-.51,0-1,.07-1.45.14l1.42-.11a.81.81,0,0,0-.2.33l-.95,0a3.11,3.11,0,0,0,.95.15.14.14,0,0,0,.16.08l.47,0,1.51.09.31,0h0a6.62,6.62,0,0,0-1.9.14c.29.12.27,0,1.84.07l-.22.91L20.94,21c-.27,1-.53,2-.78,3.07-.08.34-1.08,4.73-1.38,6.37-.35,1.89-1.3,6.36-.53,7.28.16-.6.2-1.29.39-1.85a5.39,5.39,0,0,1,.08.78,3.85,3.85,0,0,0,.14-.76,1,1,0,0,0,.1.5,3.56,3.56,0,0,0,0-1,4.13,4.13,0,0,1,0-1A12.58,12.58,0,0,0,19.23,36c0-.16.06-.32.12-.47,0,.21,0,.6.08.72.08-.4.09-.77.19-1.19a5.78,5.78,0,0,0,.18-1,5.12,5.12,0,0,0,0,1.23,1.91,1.91,0,0,0,.12-.55.09.09,0,0,0,0,.05c0-.08.06-.18.07-.27s.05,0,.08,0l-.05,0,0-.06c.12-.41.22-.94.3-1.34.14-.75.9-3.78,1.07-4.86,1,.9,2.07,1.9,3,2.69a55.61,55.61,0,0,0,5,5l.28.34a11.46,11.46,0,0,1,1,.88l-.1-.2c.49.4.94.75,1.31,1ZM30,25.46a5.7,5.7,0,0,1-1.84.74,6.69,6.69,0,0,0,2.58-1.38A2.47,2.47,0,0,1,30,25.46Zm1.23-3.66a6.64,6.64,0,0,0-1.1-1.6c-.17-.19-.33-.35-.61-.63h0a8.22,8.22,0,0,0-.61-.56A5.44,5.44,0,0,1,31.25,21.8Zm-1.85-.15a2.32,2.32,0,0,1,.34,1c0,.15,0,.33,0,.48s-.1.27-.1.41l-.18.3c-.13.07-.13.19-.3.27a2.19,2.19,0,0,1-.43.28,3,3,0,0,1-.55.26,9.66,9.66,0,0,1-2.73.52l-.66,0c-.3,0-.61,0-.91,0H23l-.85,0A26,26,0,0,1,23,20.68l.38-1.3.19-.6a10.81,10.81,0,0,1,2.31.47,11.34,11.34,0,0,1,1.9.88A4.55,4.55,0,0,1,29.39,21.66ZM27.8,25.2a10.25,10.25,0,0,1-1.26.3c-.47.07-.83.13-1.41.17a20.93,20.93,0,0,1-2.62,0l-.43,0,0-.31.29,0c.52,0,1,.06,1.45.06s.94,0,1.38,0A16.59,16.59,0,0,0,27.8,25.2Zm-5.73.59,1.53.11c.55,0,1.09,0,1.62,0,.36,0,.64,0,1,0a8.47,8.47,0,0,0,3.42-.79A9.16,9.16,0,0,1,26,26.17a.38.38,0,0,0-.28-.11c-1.22,0-2.43,0-3.65-.1Zm6.45,6.89a4.55,4.55,0,0,1,.87.84C28.89,33,28.52,32.68,28.52,32.68Z"/><path class="cls-1" d="M39.87,19.39a1.29,1.29,0,0,0,.46-.23c-.09,0-.2.11-.28.08l0,0-.25.12,0-.06,0,.06-.08,0,0,0h0l0,0a.37.37,0,0,1-.22,0l0-.12,0,0c0-.11.12-.22.18-.22h0l.07.21,0-.16c0-.12-.11-.23-.16-.36l0-.08,0-.13,0-.06.09-.11V18.2a.38.38,0,0,0-.23-.25,2.36,2.36,0,0,0-.08-.22.44.44,0,0,0-.34.06l-.09.07-.12.21v.07h0l-.1,0-.07-.06.07,0L38.5,18h0v0l-.08,0-.12,0-.1.07.05-.08,0,0-.13,0v-.05a.37.37,0,0,0-.16,0l0,.09-.09,0,.07-.11,0-.08c-.06,0-.1.13-.17.17l-.05,0h0l-.09.07a1.73,1.73,0,0,0-.09.2v0l-.27.77.43-.5a.53.53,0,0,1,.13-.11l0,0,0,.15,0,0,0,0-.06,0-.49.48,0-.1-.55.64.44.4h0L36.88,20l-.1.29a4,4,0,0,0,.8.12l.14.08.16.06h0l.06,0h-.07l-.06,0-.06.06c-.18.17-.19.33-.28.49l-.09.1.13-.08.63-.28.66-.34.09-.06.05.08,0-.14,0,0,0,.09h0l-.06.18.06.1.16-.45c.17-.11.36-.21.52-.33a1.05,1.05,0,0,1-.09-.18l0,.15h0v0a.41.41,0,0,1-.15-.06l0,0s0-.1.12-.18a.91.91,0,0,0-.19.11l.08-.22s-.05-.13-.05-.13h.06l0-.06,0-.06,0,0h0c-.07-.11-.14-.2-.21-.31.06,0,.12.15.18.17l0,0a.51.51,0,0,1,.15.17s0,0,0,.06h0v.19l.31-.11.08.13-.08,0a.09.09,0,0,0-.07,0,.62.62,0,0,0,.1.12l0,0v0l0-.08H40Zm-.58.22,0,0-.07.21,0,0,.09-.27Zm.07-1.53,0-.09h0Zm-2.27,2.09-.14-.37.26.31c.08.09.26.12.31.22l-.3-.08A.42.42,0,0,1,37.08,20.17ZM39.2,18c0,.09-.06.1-.11.1a.94.94,0,0,1-.14-.07l0,.06c0,.06,0,.08-.05.08s-.07,0-.11,0v-.07a.7.7,0,0,0,.13-.17c.1,0,.14-.1.27-.08a.6.6,0,0,0-.05.09l.13,0,0,.08Zm.15,1.38,0,.08-.05,0A.1.1,0,0,1,39.35,19.42Zm-.32,0,.12,0,0,0h-.08l-.08,0,0,.09-.09-.06,0,0v0h0l-.11.3-.05,0h0l-.08-.08.08,0,0,0,0,0c-.06,0-.1,0-.17,0l0,0,.13,0v0a.45.45,0,0,1-.25-.11h0c.08-.05.2.08.28,0h0a2.75,2.75,0,0,0-.23-.15,1.14,1.14,0,0,1,.28.16H39Zm.77,0,.06,0a1,1,0,0,1,.06.15h0S39.84,19.47,39.8,19.41Z"/><path class="cls-1" d="M36.56,35.55s-.08,0-.09-.08a0,0,0,0,1,0,0h0l0,0-.15,0h0L35,34.6l-.08-.09,0,0-.4-.25a2.22,2.22,0,0,0-.16.66,1,1,0,0,0,.11-.23.37.37,0,0,1,.09-.12l.19-.16.14.11-.3.18c-.09.05-.14.24-.23.26v-.05l-.16.2-.07.14h0l0,.05v-.13l0-.08c-.11-.22-.24-.26-.36-.38l-.07-.11,0,.14.13.68c.05.25.11.49.18.72l0,.07a.28.28,0,0,0,0,.07h-.05l-.09.05.25.16v0h0l-.27-.17-.06,0,0-.05-.08,0-.09.05.21.13,0,0,.06,0,.14.08,0,0,.06,0,.15.09c0,.15.09.3.14.44l.08-.14.08,0h-.06l0,0h0s0,0,.07,0l-.06,0h0l.07.06,0,0,0,0s0,0,0-.05l0,0a.11.11,0,0,0,0,0l.11.07s0,0,0-.07v0l.18.11v0l-.16-.1a.31.31,0,0,0,0-.1h0a2.54,2.54,0,0,0,.39,0s-.14,0-.17.07h0a.37.37,0,0,1-.18.06c.1.09.2.19.19.24v0h-.12c0-.06,0-.11-.07-.1h0s0,0,0,0l.09.06h.51l.12,0,.05,0,.1.1.16.06c.13,0,.23,0,.25,0h0l-.06,0h.11l.12.13,0,0a.23.23,0,0,0,0-.21l-.06-.09,0-.94-.14-.05H36V36.1l0,0,0,0,.05,0,0,.05.1-.11,0,0h0l.07-.06.08-.1,0,0,.05,0h0v-.08h0a.23.23,0,0,0,0-.12h0l-.06,0,.07,0Zm-2,1.44v0h0Zm0-.15v0l.17.11v0h0Zm.37-.49-.06.23,0,.1v-.14l-.08,0,.06-.06,0,0h0l-.29-.18.06-.06,0,0,.09-.08,0,.07,0,0,0,0c0-.05,0-.1.05-.16a.09.09,0,0,1,0,0,.82.82,0,0,1,0,.12h0A.46.46,0,0,1,35,36h0c0,.07-.12.18-.1.25h0c.07-.06.12-.14.2-.2a2.7,2.7,0,0,1-.21.25Zm1-.81h0l0,0-.54-.61.67.57a.18.18,0,0,1,.06.08v0l-.18,0Zm0,1.48h0l0-.69h0v0l0,0,.07-.07s-.06.22,0,.24V37c-.06,0-.13,0-.13,0Z"/><path class="cls-1" d="M45.48,35.23a.6.6,0,0,0,.17-.19c-.07,0-.12.12-.19.13v0l0,0a2.12,2.12,0,0,0-.33-.19.83.83,0,0,0,.16.16.33.33,0,0,1,.07.11v0h0s0,0,0,0l-.05,0h0l0-.07h0c0-.09-.15-.18-.15-.26l0,0L45,34.81l-.1-.1h0l0,0,0,0H45a1.2,1.2,0,0,0,.42-.19l.11,0H45.4l-.6-.08-.65-.06h-.07l-.05,0v0l0-.09-.2.17h0l.21-.18v-.06l0,0,.06-.05,0-.09-.41.34h-.41l.09.11v.07l0-.05,0,0a.07.07,0,0,1,0,0s0,0-.06,0a.53.53,0,0,1,0-.06v0h0l-.07,0,0,0h0l0,0h0l-.09.07h.05l0,0-.15.12h0l.12-.1.07.06h0a1,1,0,0,0-.06.26h0a.12.12,0,0,0,0-.08v0a.32.32,0,0,1,0-.16c-.1.06-.21.11-.25.09l0,0,0-.1c.06,0,.1,0,.1,0h0s0,0,0,0l-.07.06,0-.05,0,.06h0l0,.05c0,.09-.06.18-.1.28l0,0v0h0l0,0,0,0v-.08l-.08,0s0,.1,0,.14l0,0h0l0,.06v0l-.07.08c-.06.1-.07.18,0,.22h0l0,0,0,.09-.14.06,0,0a.2.2,0,0,0,.19,0l.09,0,.1,0,.05.13,0-.1L43,36l0,.11-.07,0-.12.51.6.06-.26,0,.07.18a6,6,0,0,0,.76-.2h0v.08s.06-.05.1-.05h0v0h.06l.16,0h.08l-.06,0,0,0,0,.05c-.06.15,0,.23,0,.34l0,.08.07-.08.39-.35c.14-.13.26-.26.38-.39l0-.06.09,0,0-.09,0,0,0,.05h0l0,.11.11,0L45.29,36c.09-.11.19-.23.26-.34l-.18-.06.11.07h0a.68.68,0,0,1-.16,0h0a0,0,0,0,1,0-.05l.05,0v0l.13-.11h.09v-.05l.09,0,0,0,.06-.05Zm-.13.12h0Zm-.11,0h0Zm-1.33-.57h0l0,.06,0,0,0,.1,0-.06v0l0,0h-.08l.07,0s0,0,0,.05h0v0h0l-.06,0,0,0a.24.24,0,0,0,0-.13Zm-.36.09.1,0s0-.05,0-.08l0,0V35l-.07,0-.07-.06Zm-.19-.28,0,0v0Zm0,.12h0l.14-.11h0ZM43,35.79l0-.11.12,0,0,.1Zm.59.82H43.4l-.33-.14.4.07c.12,0,.29,0,.39,0Zm1.51-.73L45,35.8l.08-.07h0S45.07,35.88,45.06,35.89Zm.2-.35,0-.12.06,0,.07,0v0h0l-.05,0,.09,0Zm.25-.17h0Z"/></svg>