<svg id="Website" xmlns="http://www.w3.org/2000/svg" viewBox="0 0 290 60"><defs><style>.cls-1{fill:none;stroke:#5a9678;stroke-linecap:round;stroke-linejoin:round;stroke-width:2.4px;}.cls-2{fill:#5a9678;}</style></defs><title>logo</title><path class="cls-1" d="M20.1,35.7l.68-19.41s8.37-.59,9.1,3.9-8.38,5.21-8.38,5.21L32.1,35.7"/><path class="cls-1" d="M22.5,35.7,39.3,23.1c1,10.62.6,13.2-1.2,17.4-2.82,6.59-10.8,7.2-16.2,1.2"/><path class="cls-2" d="M35.63,35.32a.14.14,0,0,1,.14.12.14.14,0,0,1,0,.1.15.15,0,0,1-.11.06.14.14,0,0,1-.14-.12.14.14,0,0,1,.11-.16h0m0-1-.18,0a1.14,1.14,0,0,0,.18,2.26l.18,0a1.14,1.14,0,0,0-.18-2.26Z"/><path class="cls-2" d="M38.19,16.77a.14.14,0,0,1,.14.12.14.14,0,0,1-.14.16.14.14,0,0,1-.14-.12.14.14,0,0,1,0-.1.14.14,0,0,1,.09-.06h0m0-1-.18,0A1.14,1.14,0,0,0,38.19,18l.18,0a1.14,1.14,0,0,0-.18-2.26Z"/><path class="cls-2" d="M30,5A25,25,0,1,1,5,30,25,25,0,0,1,30,5m0-5A30,30,0,1,0,60,30,30,30,0,0,0,30,0Z"/><path d="M76.46,8.74v.65c-1.49-.05-1.87.34-1.87,1.78v3.08a22.36,22.36,0,0,0,3.47-2.67c.76-.76,1-1.22,1-1.62s-.36-.61-1.06-.58V8.74h5.1v.65A3.76,3.76,0,0,0,81,9.84c-.7.34-1.87,1.75-4.45,3.85,1.49,1.49,4.29,4.93,5.06,5.71a2.42,2.42,0,0,0,2.05,1V21H80.13c-1.46-1.24-4.54-5.26-5.55-6.21v4c0,1.19.4,1.67,1.87,1.6V21H70.23v-.65c1.42.07,1.93-.23,1.93-1.69V11c0-1.26-.4-1.69-1.93-1.62V8.74Z"/><path d="M96.44,8.74v2.57h-1a2.9,2.9,0,0,0-3-1.93H89.72v4.86h2c1.69,0,2.32-.4,2.49-1.6h1.19v3.91H94.2c-.05-.92-.5-1.66-1.91-1.66H89.72v3.53c0,1.31.29,1.94,2.13,1.94,2.27,0,3.38-.63,4.36-2.38h1.13l-.68,3H85.38v-.65c1.58.07,1.91-.38,1.91-1.71V11.08c0-1.12-.23-1.8-1.91-1.69V8.74Z"/><path d="M107,8.74c2.72,0,4.29,1.31,4.29,3.13,0,1.62-1.31,2.88-3.37,3.22,1.08,1.22,2.9,4,3.69,4.77a1.44,1.44,0,0,0,1.31.5V21h-3.22c-1.51-1.3-2.9-4.05-4-5.15a1.44,1.44,0,0,0-1.24-.45h-.68v3.37c0,1.13.31,1.67,1.93,1.58V21H99.47v-.65c1.3,0,1.86-.16,1.86-1.71V11c0-1.12-.25-1.69-1.86-1.64V8.74Zm-2,6c2.68,0,3.56-1,3.56-2.57s-1-2.81-3.26-2.81h-1.51v5.38Z"/><path d="M117.91,16.39l-.63,1.73a3.61,3.61,0,0,0-.25,1.13c0,.65.58,1.13,1.78,1.12V21h-4.63v-.65c1.33-.22,1.73-.74,2.4-2.45l3.17-8.16-.4-1h2.5L126,19.14c.38,1,.74,1.19,1.64,1.22V21h-6.12v-.65c1.6,0,2-.38,2-.88a3.06,3.06,0,0,0-.27-.94l-.85-2.16Zm2.16-5.82-1.84,4.93h3.85Z"/><path d="M134.72,8.74c-.05,2.41,2.2,5.85,3.31,8.75,1.84-4.2,3.28-6.66,3.28-8.16,0-.16,0-.43,0-.59h4.48v.65c-1.3-.09-1.93.34-1.93,1.13,0,.23.13,1,.16,1.31l.86,6.52c.2,1.53.45,2,1.8,2V21h-6v-.65c1.39,0,1.89-.32,1.89-1.44a12.15,12.15,0,0,0-.11-1.28L141.58,11h0c-.58,2.14-3.42,7-4,10h-.76c-.07-1.78-3.29-7.17-4.16-10h0l-1,6.54a11.43,11.43,0,0,0-.12,1.41c0,1,.59,1.44,2,1.39V21h-4.43v-.65c1.12,0,1.51-.27,1.86-2.5l.94-6a8.73,8.73,0,0,0,.14-1.28c0-.9-.61-1.26-1.73-1.24V8.74Z"/><path d="M154.58,8.74v.65c-1.57-.07-1.89.38-1.89,1.64v7.65c0,1.22.27,1.78,1.89,1.69V21h-6.19v-.65c1.44.07,1.87-.32,1.87-1.64V11c0-1.19-.36-1.69-1.87-1.62V8.74Z"/><path d="M162.8,8.74v.65c-1.49-.05-1.87.34-1.87,1.78v3.08a22.32,22.32,0,0,0,3.47-2.67c.76-.76,1-1.22,1-1.62s-.36-.61-1.06-.58V8.74h5.1v.65a3.76,3.76,0,0,0-2.05.45c-.7.34-1.87,1.75-4.45,3.85,1.49,1.49,4.29,4.93,5.06,5.71a2.43,2.43,0,0,0,2.05,1V21h-3.58c-1.46-1.24-4.54-5.26-5.55-6.21v4c0,1.19.4,1.67,1.87,1.6V21h-6.23v-.65c1.42.07,1.93-.23,1.93-1.69V11c0-1.26-.4-1.69-1.93-1.62V8.74Z"/><path d="M179.43,8.74c2.5,0,4.29,1,4.29,3,0,1.49-1.17,2.48-3.33,2.77v0c2.36.11,3.67,1.26,3.67,3,0,1.33-1,3.38-4.14,3.38h-8.16v-.65c1.6.07,1.85-.36,1.85-2v-7.2c0-1.24-.18-1.85-1.85-1.76V8.74Zm-1.08,5.58A2.37,2.37,0,0,0,180.93,12c0-1.33-.92-2.59-3-2.59H176v4.93ZM176,18.46c0,1.26.54,1.91,2.34,1.91a2.61,2.61,0,0,0,2.94-2.65,2.72,2.72,0,0,0-3-2.75H176Z"/><path d="M192.63,8.74v.65c-1.48,0-1.91.22-1.91,1.6v5.53a3.66,3.66,0,0,0,.59,2.48,4.55,4.55,0,0,0,5.69.13,4.27,4.27,0,0,0,.94-2.84V11.85c0-1.67-.38-2.57-2.09-2.47V8.74h4.68v.65c-1.26,0-1.94.31-1.94,1.76v5c0,3.11-1.37,5.08-5.11,5.08a5.85,5.85,0,0,1-4.1-1.26c-.77-.77-1.08-1.89-1.08-4.23V11.19c0-1.37-.23-1.87-1.93-1.8V8.74Z"/><path d="M205.14,20.37c1.4.05,1.85-.29,1.85-1.67V9.39h-.4a2.89,2.89,0,0,0-3.24,2.14h-1V8.74H214v2.79h-1a2.89,2.89,0,0,0-3.24-2.14h-.4V18.7c0,1.26.32,1.75,1.85,1.67V21h-6.14Z"/><path d="M222.42,8.74v.65c-1.57-.07-1.89.38-1.89,1.64v7.65c0,1.22.27,1.78,1.89,1.69V21h-6.19v-.65c1.44.07,1.87-.32,1.87-1.64V11c0-1.19-.36-1.69-1.87-1.62V8.74Z"/><path d="M230.64,8.74v.65c-1.49-.05-1.87.34-1.87,1.78v3.08a22.32,22.32,0,0,0,3.47-2.67c.76-.76,1-1.22,1-1.62s-.36-.61-1.06-.58V8.74h5.1v.65a3.76,3.76,0,0,0-2.05.45c-.7.34-1.87,1.75-4.45,3.85,1.49,1.49,4.29,4.93,5.06,5.71a2.43,2.43,0,0,0,2.05,1V21h-3.58c-1.46-1.24-4.54-5.26-5.55-6.21v4c0,1.19.4,1.67,1.87,1.6V21h-6.23v-.65c1.42.07,1.93-.23,1.93-1.69V11c0-1.26-.4-1.69-1.93-1.62V8.74Z"/><path d="M245.78,8.74v.65c-1.49-.05-1.87.34-1.87,1.78v3.08a22.32,22.32,0,0,0,3.47-2.67c.76-.76,1-1.22,1-1.62s-.36-.61-1.06-.58V8.74h5.1v.65a3.76,3.76,0,0,0-2.05.45c-.7.34-1.87,1.75-4.45,3.85,1.49,1.49,4.29,4.93,5.06,5.71a2.43,2.43,0,0,0,2.05,1V21h-3.58c-1.46-1.24-4.54-5.26-5.55-6.21v4c0,1.19.4,1.67,1.87,1.6V21h-6.23v-.65c1.42.07,1.93-.23,1.93-1.69V11c0-1.26-.4-1.69-1.93-1.62V8.74Z"/><path d="M265.76,8.74v2.57h-1a2.9,2.9,0,0,0-3-1.93H259v4.86h2c1.69,0,2.32-.4,2.49-1.6h1.19v3.91h-1.19c-.05-.92-.5-1.66-1.91-1.66H259v3.53c0,1.31.29,1.94,2.12,1.94,2.27,0,3.39-.63,4.36-2.38h1.13L266,21H254.71v-.65c1.58.07,1.91-.38,1.91-1.71V11.08c0-1.12-.23-1.8-1.91-1.69V8.74Z"/><path d="M272.26,8.74l7.26,8.73h0V11.6c0-1.8-.54-2.27-2.39-2.21V8.74h5.11v.65c-1.66-.11-2.07.5-2.07,1.76v6.12c0,1,.29,1.78.32,3.92h-.92l-8.19-9.81h0v6.84c0,1.53.58,2.09,2.38,2.14V21h-5.44v-.65c2,0,2.41-.41,2.41-2.54V10.61a3.35,3.35,0,0,0-2.29-1.22V8.74Z"/><path d="M77.06,47.06c0,1.89.9,2.82,3.15,2.82V51H70.88V49.88c2.64,0,3-1.44,3-3.45V34.64c0-2-.93-2.94-3-2.94V30.56H80.7c5.61,0,7.65,2.37,7.65,5.28,0,2.19-1.53,4.47-5.58,5.13l4.29,4.89c2.28,2.58,3.81,4,5,4V51h-2.4c-2.16,0-3.06-.66-5.31-3.45l-4-5a2.43,2.43,0,0,0-2.4-1.23h-.87Zm2.82-7c3.36,0,4.83-1.47,4.83-3.87s-1.62-4.35-5.31-4.35H77.06v8.22Z"/><path d="M100.07,46.85c0,2,.72,3,3.21,3V51H93.66V49.88c2.79,0,3.27-1,3.27-3.45V34.91c0-2.25-.72-3.21-3.27-3.21V30.56h9.63V31.7c-2.19,0-3.21.78-3.21,3.09Z"/><path d="M127.64,49.94a29.22,29.22,0,0,1-8.4,1.44c-8.37,0-12.3-5.22-12.3-10.23,0-6.09,5.64-11,12.66-11a21.5,21.5,0,0,1,7.32,1.35l.42,4.8h-1.23c-1.56-3.3-3.81-4.86-7-4.86-4.77,0-8.37,3.93-8.37,9.21s3.81,9.39,8.7,9.39a10.25,10.25,0,0,0,5-1.32V44.45c0-1.83-.93-2.82-3-2.82h-.63V40.49h9.6v1.14c-2.1.18-2.73,1-2.73,3Z"/><path d="M158.9,46.88c.24,1.74.9,2.76,3.12,3V51H153V49.88c2,0,2.85-1.23,2.61-3.18l-1.38-11.55h-.06C152,41.48,148,47,147.17,51h-1.41c-.63-3.78-5.28-10.83-7-16.35h-.06l-1.56,10.86c-.48,3.09.3,4.2,2.67,4.35V51h-7V49.88c1.77,0,2.49-.93,2.82-3.06l1.71-11.13c.39-2.58-.06-3.84-2.19-4V30.56h6c.33,5.19,4.8,11.34,6.33,16.11,2.61-5.13,4.29-8.67,5.28-11a8.4,8.4,0,0,0,.87-5.1h6.09V31.7c-2.31.21-2.52,1.32-2.25,3.45Z"/><path d="M176.09,30.2a10.37,10.37,0,0,1,10.59,10.68c0,5.94-4.8,10.5-11.07,10.5a10,10,0,0,1-10.14-10.2C165.47,33.89,170.84,30.2,176.09,30.2Zm.42,19.89c3.93,0,6.54-3.24,6.54-8.07,0-5.22-2.49-10.53-7.5-10.53-3.6,0-6.45,2.79-6.45,8.07C169.1,45,171.68,50.09,176.51,50.09Z"/><path d="M197.06,47.06c0,1.89.9,2.82,3.15,2.82V51h-9.33V49.88c2.64,0,3-1.44,3-3.45V34.64c0-2-.93-2.94-3-2.94V30.56h9.81c5.61,0,7.65,2.37,7.65,5.28,0,2.19-1.53,4.47-5.58,5.13l4.29,4.89c2.28,2.58,3.81,4,5,4V51h-2.4c-2.16,0-3.06-.66-5.31-3.45l-4-5a2.43,2.43,0,0,0-2.4-1.23h-.87Zm2.82-7c3.36,0,4.83-1.47,4.83-3.87s-1.62-4.35-5.31-4.35h-2.34v8.22Z"/><path d="M235.25,43h-7.92l-1.08,2.82c-.81,2.1-.06,3.9,2.22,4V51h-6.9V49.88c1.56-.39,2-1.2,2.91-3.36l6-15-.48-1h3.21l7.44,17.31c.6,1.38,1.17,2,2.28,2V51h-8.4V49.88c2.4-.24,3-1.38,2.22-3.18Zm-4.08-9.75L228,41.42h6.6Z"/><path d="M248.6,34.7c0-2-.69-3-3.39-3V30.56h9.93V31.7c-2.76,0-3.39,1.17-3.39,2.88V45.77c0,2.76,1,4,4,4h2.67c2.64,0,4.35-1,5.88-3.72h1.26l-1.26,5h-19V49.88c2.82-.18,3.39-.84,3.39-3.45Z"/><path d="M268.13,44.78h1.29c.6,3.09,2.22,5.16,5.55,5.16,2.49,0,4.5-1.53,4.5-3.36a3.13,3.13,0,0,0-1.08-2.19c-2-2-6-3.33-8.49-5.85a4.27,4.27,0,0,1-1.35-3.18c0-3.09,2.82-5.16,7-5.16a13.25,13.25,0,0,1,6.27,1.71v4.41h-1.29a4.91,4.91,0,0,0-5.16-4.83c-2.07,0-3.69,1.23-3.69,2.85a2.78,2.78,0,0,0,1,2c1.59,1.59,6.06,3.36,8.31,5.61a5,5,0,0,1,1.65,3.72c0,3.33-3.12,5.67-7.5,5.67a18.58,18.58,0,0,1-6.93-1.44Z"/></svg>