<svg id="Website" xmlns="http://www.w3.org/2000/svg" viewBox="0 0 290 60"><defs><style>.cls-1{fill:#5a9678;}</style></defs><title>logo</title><path class="cls-1" d="M48,43l-.37.45q.41-.57.85-1.14c.27-.39.51-.81.78-1.22a27.72,27.72,0,0,0,1.44-2.55c-1.26,1.8-2.81,3.46-4.18,5.05-.75.74-1.34,1.58-2,2.33a14.43,14.43,0,0,0-.8,1.23,7.73,7.73,0,0,0-.68,1.27A1.5,1.5,0,0,0,42,48.39a7.82,7.82,0,0,0-1.52.37c-.49.19-1,.32-1.35.46s-.59.26-.58.33a6,6,0,0,1-1.05.71l-1.13.63q.8-.41,1.56-.82-.76.42-1.56.82A15.86,15.86,0,0,1,28,52.23a19.32,19.32,0,0,1-8.47-3A23.17,23.17,0,0,1,13.6,44a18.74,18.74,0,0,1-3.53-7,12.76,12.76,0,0,1-.34-1.42,12.6,12.6,0,0,0,.32,1.6,18.52,18.52,0,0,1-1.93-5.51,2.66,2.66,0,0,0-.38,1.22,8.69,8.69,0,0,1,0-1A6.32,6.32,0,0,1,7.22,30c0-.75,0-1.52-.11-2,.2.23.32-.53.47-1.19L7.39,27a24.72,24.72,0,0,1,2.25-7.5,1.19,1.19,0,0,1,.49-.54c.34-.65.6-1.35,1-2,.16.31,1.3-1.3.84-.35a6.44,6.44,0,0,1,.59-1.09c.25-.33.51-.64.77-1,.5-.66,1.08-1.21,1.55-1.88A25.79,25.79,0,0,1,31,6.29l-.14-.12c.53,0,1.06-.09,1.58-.12L34,6a7.6,7.6,0,0,1,1.68.17,7.29,7.29,0,0,1,1.8.52c.48.06,1,.15,1.55.24s1.05.28,1.56.4A9.36,9.36,0,0,0,43,7.81l1.35.7c.39.23.74.42,1.1.61s.72.38,1.11.61.76.54,1.22.9c-.11-.32.37,0,.8.26s.75.5.47,0c-.86-1.37-1.16-1.17-2-2.31l0,.11A26.06,26.06,0,0,0,29.5,1.83c-4.34.37-9.1,1.27-13,3.61l-1.57,1c-.53.33-1,.75-1.49,1.12A25.31,25.31,0,0,0,10.66,10a15.62,15.62,0,0,0-1.19,1.36c-.37.47-.77.9-1.09,1.37l-.92,1.41L7,14.84l-.36.7a13.18,13.18,0,0,1-1.52,2.05A28.1,28.1,0,0,0,2.42,30.12a1.06,1.06,0,0,1,0-.21C2.5,31,2.44,32,2.49,33l.12,1.5.09.78.19.79c.09,0,.17.3.26.46C3,36.78,4,40,5.76,42.78a45,45,0,0,0,4.34,5.45l.5.48c2.95,3.45,6.89,6.65,10.83,7.83a15.16,15.16,0,0,0,2.66.1c.65.35.85,0,1.68.19a4.85,4.85,0,0,0,2.31.8c.45,0,.5-.16,0-.34a38.14,38.14,0,0,0,5.11-.17c.71-.17,1.42-.32,2.13-.52a1.78,1.78,0,0,1,1.3-.05c1.53-.49,1.12-.18,2.75-.65a4.84,4.84,0,0,0,2.11-1l1.26-.82a4.41,4.41,0,0,1,.72-.5l-.21.18c1.7-.89,3.09-1.19,4.62-2.38a26,26,0,0,0,5.56-6.08,33.46,33.46,0,0,0,3.37-7.22c-.28-.14-.3,1.06-.7,1a27,27,0,0,0,2-8.59c.13-.54.22-1.2.32-1.45.07-1-.18-.56-.17-1.27l.27-.12c-.31-1,.12-1.54-.13-2.51-.12,0-.18-.39-.24-.73.29-.08-.27-1,0-1.05h0a3,3,0,0,1-.11-.61L57.63,22c-.2-.37-.5-.82-.77-1.27l-.78-1.23c-.25-.34-.45-.58-.52-.66l0-.19c-.24-.49-.54-.61-.45-.3l-.27-.61.05.06-.27-.61c0-.12,0-.31.23-.2a3.12,3.12,0,0,1-.69-1A15.49,15.49,0,0,1,55,19.38a14.82,14.82,0,0,1-.7-1.57,11.54,11.54,0,0,0-.89-2.58c-.13-.16-.45-.12-.6-.57.06-.31-.31-.42-.41-.82a3.74,3.74,0,0,1,.81,1c.21-.23-.49-1-.63-1.33-.17-.08-.61-.85-1-1.23.36,0-.17-.44-.28-.77s-.46-.41-.43-.23c-.29.1.85,1.2.28,1,0-.19-.5-.69-.77-1-.12.1.09.27-.19.19-.26-.34-.7-.54-.75-.84.08,0,.18.18.26.27-.38-.45,2.79,1.59,2.24,1.12,0,.2-2.84-1.78-2.58-1.48s-.36,0-.16.31l.39.15c.28.39.21.72,0,.67-.53-.62,2.3,1,1.73.58,0,.09.09.17.13.26a2.56,2.56,0,0,1-.93-1c-.11.1-.42-.15-.68-.36l-.06-.1c-.28-.19-.57-.56-.57-.26.67.71.16.74-.34.78s-1,.11-.44.79c-.26-.79.42-.05,1,.51a1.79,1.79,0,0,0,.38,1c.31.37.27.15.39.18.1.27.36.72.17.77.39.18.25.56.57.89s.06-.07.31.1c.3.52.7,1.27.91,1.7,0,.24,0,.86-.46.63-.42-.78.54.09,0-.68-.13.53-.51-.66-.84-.65a2.72,2.72,0,0,0,.59,1.25V18a3.25,3.25,0,0,1,.74,1.61c-.17,0-.17.18-.33-.09l.23.55c.07.05.14.1.1-.06a1.11,1.11,0,0,1,.3.72c-.1.08,1.64,2.79,1.45,2.76.11.42-.07.57.17,1a8.4,8.4,0,0,0-.7-1.86,13.1,13.1,0,0,0-.75-1.4c0,.21.61,1.26,1.05,2.39.22.57.44,1.14.59,1.59a1.79,1.79,0,0,1,.11.87c.06.32.14.7.27.6,0,.55-.29-.12-.37.27,0,0,.07,0,.08.08l-.13.39c.3.81.07,2.05.36,2.93a4.74,4.74,0,0,1-.59-1.09l.07-.1c0-.08-.12-.53-.26-.51A3.61,3.61,0,0,0,54,30.12c0,.1-.09.22-.13.3h.06c-.1.18-.11.16-.16.09l0,0c-.44.3.21,2.05-.21,3,0,.29.07,0,.1.39-.26.95-.63,1.55-.94,2.5.1.36.16.41.43.08a5,5,0,0,1-.27.72c-.23-.79-.91,1.19-1.11.32a1.94,1.94,0,0,0-.4,1c.1.08.27.22,0,.7-.46.6-.33.47-.72.95-.2.06-.16-.17-.29-.2-.19.93-.65.56-1.05,1.3-.23.48-.75,1.4-.56,1.56C48.31,43.35,48.15,43.23,48,43Z"/><path d="M22,33.14a6.45,6.45,0,0,0,0-1.25c-.08-.86.32-1.57.22-2.41-.13-1.06.23-2.08.15-3.17a35.23,35.23,0,0,1-.12-6.11l.14-1.35.11-.81a8.63,8.63,0,0,1,1.9.14,11.85,11.85,0,0,1,2.46.61A4.56,4.56,0,0,1,28.72,20a2.33,2.33,0,0,1,.51.9c.07.14,0,.33.08.47s0,.28,0,.42l-.13.32c-.11.1-.09.21-.25.32a2.19,2.19,0,0,1-.38.35,3,3,0,0,1-.49.35,9.66,9.66,0,0,1-2.59,1l-.64.16c-.29.07-.6.12-.89.17l-.86.17-.88.12a21.1,21.1,0,0,0-2.6.45c.9-.12,2-.23,2.93-.34.52,0,1-.12,1.44-.2s.93-.14,1.36-.25a16.57,16.57,0,0,0,2.48-.66,10.24,10.24,0,0,1-1.18.52c-.45.15-.8.27-1.36.42a20.91,20.91,0,0,1-2.58.46l-2.74.31.13.19.25.24.51.48,1,.94,2,1.81.44.4.3.26.61.52,1.23,1-1.22-1-.6-.53-.74-.68L21.94,27.3,21,26.4,20.54,26l-.23-.22-.08-.16c1.19-.11,2.44-.22,3.57-.36.54-.1,1.08-.16,1.59-.28.35-.07.63-.13.94-.22a8.4,8.4,0,0,0,3.24-1.41A2.68,2.68,0,0,0,30.48,22a4.81,4.81,0,0,0,.08-.85,3.34,3.34,0,0,0-.17-.88,5.41,5.41,0,0,0-2.6-2.77A5.3,5.3,0,0,1,30.68,20,3.61,3.61,0,0,1,31,21.94,3,3,0,0,1,30,23.62a8,8,0,0,1-3.49,1.66c-.32.09-.63.16-1,.22s-.82.15-1.24.22c-.86.12-1.8.22-2.72.3l-.07.07s.09.1.13.15l.32.32.65.63,1.31,1.26,1.17,1.08,1,.92a44.62,44.62,0,0,0,4.17,3.23,15,15,0,0,0,1.56.93,37.94,37.94,0,0,1-5-3.64c-.82-.71-1.58-1.39-2.44-2.21L23.09,27.4l-.67-.67-.33-.33-.16-.16s.09,0,.13-.06a30.31,30.31,0,0,0,4-.53,11.18,11.18,0,0,0,3.29-1.16,4.45,4.45,0,0,0,1.35-1.19l.26-.4a2.68,2.68,0,0,0,.17-.45,3.71,3.71,0,0,0,.14-.46l0-.48a4.16,4.16,0,0,0-1.59-3.3A11.25,11.25,0,0,0,24,16.11l-.38,0L23,16H21.76l-.61,0H20.6s0,0,0,.07l-.12,1.19-.11,2.12-.06,1.45c-.08,1.05-.15,2.11-.21,3.16-.12,2.17-.21,4.35-.21,6.51,0,1.92-.07,5.35.84,6.12.05-.62,0-1.3,0-1.89a5.37,5.37,0,0,1,.22.75,3.85,3.85,0,0,0,0-.77,1,1,0,0,0,.19.48,3.55,3.55,0,0,0-.14-1,4.14,4.14,0,0,1-.19-1,12.56,12.56,0,0,0,.51,1.49c0-.16,0-.33,0-.49.08.2.1.59.21.7,0-.41,0-.78,0-1.2a5.81,5.81,0,0,0,0-1A5.13,5.13,0,0,0,21.83,34a1.91,1.91,0,0,0,0-.56.09.09,0,0,0,.05,0c0-.08,0-.19,0-.28s.05,0,.08,0h-.06"/><path d="M29.64,18.87c4.63,4.77-3.64,6.84-6.87,7.38-.23,0-.4.3-.21.48,3.5,3.32,7.14,6.91,11.53,9,.31.15.83-.31.41-.51-3.5-1.66-6.46-4.4-9.3-7a16.73,16.73,0,0,1-1.49-1.37c-.61-.72-1.41-.13.41-.26,3.82-.27,10.37-3.73,6.18-8.06-.24-.24-.92.06-.66.33Z"/><path d="M25.88,25c-1.53.29-3,.51-4.58.68-.13,0-.46.13-.4.33.18.58,1,1.07,1.4,1.47.71.66,1.43,1.32,2.16,2a49.53,49.53,0,0,0,6.06,4.49c.24.15.89-.19.57-.39a47.54,47.54,0,0,1-5.46-4c-.68-.57-1.35-1.17-2-1.77-.46-.43-1.8-1.33-2-2l-.4.33c1.61-.18,3.18-.42,4.78-.72.45-.08.33-.52-.12-.44Z"/><path d="M26.95,35.06a7,7,0,0,0,1-.83c.65-.63,1.48-.77,2.1-1.41.78-.79,1.83-1.18,2.68-2a38.39,38.39,0,0,1,4.9-4.09l.6-.38.4-.24.7-.43.31-.19s0,0,0,0v2.05c0,.47,0,.93,0,1.41,0,.94-.06,1.88-.16,2.82a38.46,38.46,0,0,1-1.06,6.55A11.62,11.62,0,0,1,38,39.75a15.45,15.45,0,0,1-.69,1.54,14.92,14.92,0,0,1-.73,1.31,9,9,0,0,0-.63,1,12.9,12.9,0,0,0,1.48-2,24.51,24.51,0,0,0,1.25-2.45,10.25,10.25,0,0,1-2.84,5,7.94,7.94,0,0,1-1.11.83,8.1,8.1,0,0,1-1.27.58,8.41,8.41,0,0,1-2.78.51,8.26,8.26,0,0,0,4.88-1.53,8.72,8.72,0,0,0,1.78-1.84,6.9,6.9,0,0,0,.7-1.11c.22-.36.42-.81.62-1.23,1.68-3.3,2.07-7.11,2.58-10.76a39.71,39.71,0,0,1-.59,6.72,17.79,17.79,0,0,1-1,3.37A17.35,17.35,0,0,1,38,42.74a8.4,8.4,0,0,1-5.49,3.59,10.94,10.94,0,0,1-1.64.18,12.74,12.74,0,0,1-1.63-.12,14.91,14.91,0,0,1-3.13-.79c-.58-.26-1.3-.49-1.8-.74a19.48,19.48,0,0,0,3.07,1.23,13.52,13.52,0,0,0,3.3.51A10,10,0,0,0,34,46.09a9.3,9.3,0,0,0,2.92-1.74,15.17,15.17,0,0,0,3.53-6,25.38,25.38,0,0,0,1.14-6.79c.06-1,.09-2,.09-3V26.92l-.12-2.53c-.05-.86-.09-1.78-.17-2.64l-2.07,1.47-3.42,2.51c-.91.62-1.81,1.26-2.71,1.91-1.84,1.32-3.67,2.68-5.43,4.1-1.57,1.26-4.4,3.44-4.45,4.66.53-.36,1-.88,1.57-1.2a5.8,5.8,0,0,1-.47.67,4.2,4.2,0,0,0,.62-.5,1,1,0,0,0-.27.46,3.85,3.85,0,0,0,.71-.75,4.48,4.48,0,0,1,.68-.78,13.49,13.49,0,0,0-.89,1.37c.14-.1.27-.21.42-.3-.11.19-.42.46-.44.62.33-.27.6-.55,1-.81a6.36,6.36,0,0,0,.8-.64,5.54,5.54,0,0,0-.82,1,2.08,2.08,0,0,0,.47-.36.09.09,0,0,0,0,.07c.07-.05.17-.1.24-.16s0,0,.05.06l0,0"/><path d="M40.93,32c-.14,3.27-.49,6.62-2,9.57-3.81,7.31-11.2,5.4-17,2.07-.25-.15-.9.21-.56.4,4.25,2.44,9.23,4.81,14,2.24,5-2.69,6.07-9.22,6.29-14.35,0-.36-.72-.24-.73.07Z"/><path d="M38.07,41.64c-2.55,4.59-7.42,5.45-12.2,3.83-.2-.07-.86.24-.58.33,5.21,1.76,10.62.95,13.46-4.17.15-.28-.56-.19-.67,0Z"/><path d="M38.85,15.19l.07,0a1.2,1.2,0,0,0,.2-.14l0-.08a2.19,2.19,0,0,0-.3.3l.1-.05Z"/><polygon points="39.2 15.12 39.17 15.1 39.09 15.2 39.2 15.12"/><path d="M39.62,15.1l0,0-.06.08.08-.06.18,0,.07.06h0l0,0,.13.1-.06,0,0,0,0,0,.06,0h.07l-.17-.15-.09-.07h0a.71.71,0,0,0-.37-.09v.05Z"/><polygon points="40.47 17.33 40.47 17.32 40.38 17.25 40.47 17.33"/><path d="M40.44,17.59c.08.07.11.06.15.06l-.08,0Z"/><path d="M41.25,16.56a.41.41,0,0,0-.19-.08l0,0c-.06,0-.13-.06-.19-.06a2.18,2.18,0,0,1,.34.23v-.12Z"/><path d="M40.45,17.07v-.13l-.12,0a.09.09,0,0,0-.05,0,.68.68,0,0,0,.16,0Z"/><polygon points="40.52 17.2 40.51 17.19 40.47 17.12 40.4 17.08 40.48 17.16 40.44 17.14 40.53 17.23 40.52 17.2"/><path d="M40.21,18l0,.09h0l0,.1h0l0,.08.11,0-.11-.46c.09-.19.18-.37.26-.56h-.06l-.12-.1.11.11h0l0,0,0,0a.44.44,0,0,1-.17,0l0,0s-.05-.09,0-.22a.91.91,0,0,0-.11.19l-.06-.23,0,0h0v0H40l0-.1,0,0h0l-.06,0v-.06l0,0h0c-.12-.06-.23-.09-.35-.14.07,0,.18.06.24,0l0,0a.51.51,0,0,1,.22.06s0,.06,0,.07h0s0,0,0,0l0-.14,0,.05c0-.12,0-.25,0-.28h0l.18.14-.12-.12c-.1-.08-.21-.13-.33-.21l-.07,0-.11-.09,0-.06V16l-.1-.14a.37.37,0,0,0-.36-.09h0l.1.12-.09-.07V16h-.07c0,.09,0,.12,0,.14a.94.94,0,0,1-.16,0l.07,0c0,.06,0,.08,0,.09s-.07,0-.1,0h-.1a.74.74,0,0,0,0-.23.5.5,0,0,1,.23-.25h0l0-.19-.07,0a.44.44,0,0,0-.25.23.68.68,0,0,1,0,.11v.24l0,.06h0l-.07.07h-.09l.07,0-.16,0,0,0v0h-.09l-.15,0,0,.1v-.14l-.09.11,0,0a.55.55,0,0,0-.14.15h0l0,.13v-.13l-.08,0a2.32,2.32,0,0,1,0,.24l0,0h0l0,.1a1.73,1.73,0,0,0,0,.22v0L38,18l.09-.66a.53.53,0,0,1,.05-.16l0,0,.08.2h0l0,.06,0,0,0,.07-.17.77.13.53.39.12c.12,0,.3,0,.39,0l0,0h.28l.16,0h0l.06,0-.06,0,0,.06,0,.08a1.41,1.41,0,0,0,0,.56l0,.14.07-.14.38-.58c.14-.22.26-.43.37-.65l0-.1.08,0,0-.14Zm-.55-.23h0Zm.35-.59h0Zm-.33.67,0,0h0Zm0,0h0Zm.39-.32L40,17.25h0l.05.21ZM40,17.13h-.05a.1.1,0,0,1,0-.1Zm-.49.23h0a2,2,0,0,1,.2-.12l.12,0h0a.28.28,0,0,0-.07.05.26.26,0,0,0,0,.08l0,.08h-.19l.07.31h0l-.11,0h.08l0,0h0c-.05,0-.08.07-.15.08a.14.14,0,0,1,0-.07,1.06,1.06,0,0,1,.09-.11v0a.45.45,0,0,1-.27,0h0c0-.09.21,0,.25-.12h0a2.75,2.75,0,0,0-.28,0A1.14,1.14,0,0,1,39.47,17.37Z"/><path d="M40.28,16.85l.16.07.1-.06-.18-.11a1.29,1.29,0,0,0,.26-.44c-.06.06-.11.2-.19.22v-.06a1.84,1.84,0,0,1-.14.24l-.05,0,0,0-.05.07h-.07l0,0a.3.3,0,0,1-.18.13l0,.16Zm.08-.1.13.1h0s-.11,0-.17,0Z"/><polygon points="40.29 18.42 40.27 18.41 40.27 18.41 40.29 18.42"/><path d="M40.12,18.21l.08.07,0,0,0-.07Z"/><path d="M40.68,18.49l-.3-.13v0Z"/><path d="M40.27,18.41v0h-.05Z"/><path d="M40.29,18.38v0l.1,0,0-.07Z"/><path d="M40.24,18.3l0,.08h0l0-.07Z"/><polygon points="40.25 18.23 40.22 18.22 40.22 18.23 40.25 18.23 40.25 18.23"/><path d="M40.63,18.55l-.22-.09v0l.32.13-.26-.11Z"/><path d="M38.43,18.91l-.26,0,.07.29a2,2,0,0,0,.61-.32,1,1,0,0,0-.26.06A.42.42,0,0,1,38.43,18.91Z"/><polygon points="37.89 18.61 37.99 18.15 37.95 17.97 37.84 18.81 38.17 18.87 38.12 18.68 37.89 18.61"/><path d="M38.34,37.71h0l0,0s0,.09,0,.12l.08,0a1.2,1.2,0,0,0-.08-.23Z"/><polygon points="38.24 37.82 38.26 37.82 38.23 37.75 38.24 37.82"/><path d="M38,37.84v.06l-.12,0h-.31l0,0h.33l.16,0v0Z"/><path d="M38,37.92h0Z"/><path d="M38.1,37.87l0,0,.09,0Z"/><path d="M35.89,37.79l.06.06a.37.37,0,0,0,.18-.06h0s.13,0,.17-.07a2.22,2.22,0,0,1-.39,0Z"/><path d="M36.47,37.1h0l-.05,0v0l-.17,0,0,.1.21,0a2.37,2.37,0,0,0,.15.76c0-.09-.06-.22,0-.29l0,0a1.61,1.61,0,0,1-.08-.53h0a.19.19,0,0,1,0-.08l0,0Zm-.08.11h-.16s.09-.06.15-.07Z"/><path d="M35,36.61a2,2,0,0,1,.32-.21l0,0Z"/><path d="M34.82,36.47a2.6,2.6,0,0,1,.25-.13l-.13.11a1.38,1.38,0,0,0,.22-.13l0,0A2.56,2.56,0,0,0,34.82,36.47Z"/><path d="M35.31,36.3l-.07,0-.08.06.09.06Z"/><path d="M36.56,37v0h0Z"/><path d="M35.42,36.33l-.1-.06v0l.08.05Z"/><path d="M35.29,36.25l0,0,0,0Z"/><polygon points="35.26 36.26 35.28 36.25 35.27 36.24 35.26 36.26"/><polygon points="35.49 36.41 35.52 36.39 35.49 36.37 35.47 36.4 35.49 36.41"/><polygon points="35.53 36.32 35.43 36.33 35.42 36.33 35.49 36.37 35.53 36.32"/><path d="M38.15,35.46a0,0,0,0,1,0,0h0l0,0-.15,0h0L36.7,34.6l-.08-.09,0,0-.4-.25a2.22,2.22,0,0,0-.16.66,1,1,0,0,0,.11-.23.37.37,0,0,1,.09-.12l.19-.16.14.11-.3.18c-.09.05-.14.24-.23.26v-.05l-.16.2-.07.14h0l0,.05v-.13l0-.08c-.11-.22-.24-.26-.36-.38l-.07-.11,0,.14.13.68c.05.25.11.49.18.72l0,.07a.28.28,0,0,0,0,.07H35.6l-.09.05.25.16v0h0l-.27-.17-.06,0,0-.05-.08,0-.09.05.21.13,0,0,.06,0,.14.08,0,0,.06,0,.15.09c0,.15.09.3.14.44l.08-.14.08,0h-.06l0,0h0s0,0,.07,0l-.06,0h0l.07.06,0,0,0,0s0,0,0-.05l0,0a.11.11,0,0,0,0,0l.11.07s0,0,0-.07v0l.18.11v0l-.16-.1a.31.31,0,0,0,0-.1h0a2.54,2.54,0,0,0,.39,0s-.14,0-.17.07h0a.37.37,0,0,1-.18.06c.1.09.2.19.19.24v0H36.6c0-.06,0-.11-.07-.1h0s0,0,0,0l.09.06h.51l.12,0,.05,0,.1.1.16.06c.13,0,.23,0,.25,0h0l-.14-.06.1,0-.09-.07,0,0c-.07-.05-.09-.08-.08-.11s0,0,.06-.06h-.05c-.05,0-.07-.06-.06-.07h0l0-.69h0v0l0,0,.07-.07a.24.24,0,0,0,.11.07l0,.86c0,.08.09.17.06.23h0l.12.13,0,0a.23.23,0,0,0,0-.21l-.06-.09,0-.94-.14-.05H37.7V36.1l0,0,0,0,.05,0,0,.05.1-.11,0,0h0l.07-.06.08-.1,0,0,.05,0h0v-.08h0a.23.23,0,0,0,0-.12h0l-.06,0,.07,0,.08,0S38.16,35.5,38.15,35.46Zm-2.08.74h0Zm.07,0h0Zm0,0h0l0,0h0Zm.34.43v-.12l-.08,0,.06-.06,0,0h0l-.29-.18.06-.06,0,0,.09-.08,0,.07,0,0,0,0c0-.05,0-.1.05-.16a.09.09,0,0,1,0,0,.82.82,0,0,1,0,.12h0a.46.46,0,0,1,.16-.22h0c0,.07-.12.18-.1.25h0c.07-.06.12-.14.2-.2a2.7,2.7,0,0,1-.21.25h0l-.06.23,0,.1Zm-.22.33v0h0Zm0-.15v0l.17.11v0h0Zm1.33-1.31h0l0,0L37,34.88l.67.57a.18.18,0,0,1,.06.08v0Z"/><path d="M75.06,46.06c0,1.89.9,2.82,3.15,2.82V50H68.88V48.88c2.64,0,3-1.44,3-3.45V33.64c0-2-.93-2.94-3-2.94V29.56H78.7c5.61,0,7.65,2.37,7.65,5.28,0,2.19-1.53,4.47-5.58,5.13l4.29,4.89c2.28,2.58,3.81,4,5,4V50h-2.4c-2.16,0-3.06-.66-5.31-3.45l-4-5a2.43,2.43,0,0,0-2.4-1.23h-.87Zm2.82-7c3.36,0,4.83-1.47,4.83-3.87s-1.62-4.35-5.31-4.35H75.06v8.22Z"/><path d="M98.07,45.85c0,2,.72,3,3.21,3V50H91.66V48.88c2.79,0,3.27-1,3.27-3.45V33.91c0-2.25-.72-3.21-3.27-3.21V29.56h9.63V30.7c-2.19,0-3.21.78-3.21,3.09Z"/><path d="M125.64,48.94a29.22,29.22,0,0,1-8.4,1.44c-8.37,0-12.3-5.22-12.3-10.23,0-6.09,5.64-11,12.66-11a21.5,21.5,0,0,1,7.32,1.35l.42,4.8h-1.23c-1.56-3.3-3.81-4.86-7-4.86-4.77,0-8.37,3.93-8.37,9.21s3.81,9.39,8.7,9.39a10.25,10.25,0,0,0,5-1.32V43.45c0-1.83-.93-2.82-3-2.82h-.63V39.49h9.6v1.14c-2.1.18-2.73,1-2.73,3Z"/><path d="M156.9,45.88c.24,1.74.9,2.76,3.12,3V50H151V48.88c2,0,2.85-1.23,2.61-3.18l-1.38-11.55h-.06C150,40.48,146,46,145.17,50h-1.41c-.63-3.78-5.28-10.83-7-16.35h-.06l-1.56,10.86c-.48,3.09.3,4.2,2.67,4.35V50h-7V48.88c1.77,0,2.49-.93,2.82-3.06l1.71-11.13c.39-2.58-.06-3.84-2.19-4V29.56h6c.33,5.19,4.8,11.34,6.33,16.11,2.61-5.13,4.29-8.67,5.28-11a8.4,8.4,0,0,0,.87-5.1h6.09V30.7c-2.31.21-2.52,1.32-2.25,3.45Z"/><path d="M174.09,29.2a10.37,10.37,0,0,1,10.59,10.68c0,5.94-4.8,10.5-11.07,10.5a10,10,0,0,1-10.14-10.2C163.47,32.89,168.84,29.2,174.09,29.2Zm.42,19.89c3.93,0,6.54-3.24,6.54-8.07,0-5.22-2.49-10.53-7.5-10.53-3.6,0-6.45,2.79-6.45,8.07C167.1,44,169.68,49.09,174.51,49.09Z"/><path d="M195.06,46.06c0,1.89.9,2.82,3.15,2.82V50h-9.33V48.88c2.64,0,3-1.44,3-3.45V33.64c0-2-.93-2.94-3-2.94V29.56h9.81c5.61,0,7.65,2.37,7.65,5.28,0,2.19-1.53,4.47-5.58,5.13l4.29,4.89c2.28,2.58,3.81,4,5,4V50h-2.4c-2.16,0-3.06-.66-5.31-3.45l-4-5a2.43,2.43,0,0,0-2.4-1.23h-.87Zm2.82-7c3.36,0,4.83-1.47,4.83-3.87s-1.62-4.35-5.31-4.35h-2.34v8.22Z"/><path d="M233.25,42h-7.92l-1.08,2.82c-.81,2.1-.06,3.9,2.22,4V50h-6.9V48.88c1.56-.39,2-1.2,2.91-3.36l6-15-.48-1h3.21l7.44,17.31c.6,1.38,1.17,2,2.28,2V50h-8.4V48.88c2.4-.24,3-1.38,2.22-3.18Zm-4.08-9.75L226,40.42h6.6Z"/><path d="M246.6,33.7c0-2-.69-3-3.39-3V29.56h9.93V30.7c-2.76,0-3.39,1.17-3.39,2.88V44.77c0,2.76,1,4,4,4h2.67c2.64,0,4.35-1,5.88-3.72h1.26l-1.26,5h-19V48.88c2.82-.18,3.39-.84,3.39-3.45Z"/><path d="M266.13,43.78h1.29c.6,3.09,2.22,5.16,5.55,5.16,2.49,0,4.5-1.53,4.5-3.36a3.13,3.13,0,0,0-1.08-2.19c-2-2-6-3.33-8.49-5.85a4.27,4.27,0,0,1-1.35-3.18c0-3.09,2.82-5.16,7-5.16a13.25,13.25,0,0,1,6.27,1.71v4.41h-1.29a4.91,4.91,0,0,0-5.16-4.83c-2.07,0-3.69,1.23-3.69,2.85a2.78,2.78,0,0,0,1,2c1.59,1.59,6.06,3.36,8.31,5.61a5,5,0,0,1,1.65,3.72c0,3.33-3.12,5.67-7.5,5.67a18.58,18.58,0,0,1-6.93-1.44Z"/><path d="M75.34,22.18q-.39-.6-.9-1.26t-1.07-1.28q-.56-.62-1.16-1.17a10.88,10.88,0,0,0-1.19-1v4.67H69.13V11.79H71v4.29l1-1.06,1.07-1.14,1-1.12.87-1h2.26l-1,1.18-1.14,1.24-1.18,1.24q-.59.62-1.16,1.17A14.08,14.08,0,0,1,74,17.74q.65.64,1.28,1.37t1.21,1.51q.58.79,1.06,1.57Z"/><path d="M79,22.18V11.79h6.67v1.6H80.86V16h4.26v1.57H80.86v3H86v1.61Z"/><path d="M90.7,11.68a6,6,0,0,1,3.44.83A2.85,2.85,0,0,1,95.33,15a2.83,2.83,0,0,1-2.08,2.87c.19.23.41.51.64.84s.49.69.74,1.07.49.78.72,1.19.44.8.62,1.19H93.85q-.28-.54-.62-1.09T92.57,20q-.34-.52-.67-1t-.61-.82l-.36,0h-1.2v3.93H87.83V11.94a10.2,10.2,0,0,1,1.47-.2Q90.08,11.68,90.7,11.68Zm.13,1.63c-.4,0-.77,0-1.11,0v3.36h.83a8.56,8.56,0,0,0,1.21-.08,2.56,2.56,0,0,0,.88-.27,1.32,1.32,0,0,0,.53-.53,1.74,1.74,0,0,0,.18-.84,1.67,1.67,0,0,0-.18-.81,1.34,1.34,0,0,0-.52-.52,2.44,2.44,0,0,0-.8-.28A5.87,5.87,0,0,0,90.83,13.32Z"/><path d="M104.8,22.18q-.21-.62-.44-1.21t-.44-1.23H99.54q-.21.63-.43,1.24l-.43,1.21h-2q.58-1.67,1.11-3.08t1-2.67q.5-1.26,1-2.4t1-2.25h1.8q.52,1.11,1,2.25t1,2.4q.5,1.26,1,2.67t1.12,3.08Zm-3.07-8.38q-.35.8-.79,1.93T100,18.21h3.42q-.48-1.34-.93-2.49T101.73,13.8Z"/><path d="M110.49,11.79q.33.57.74,1.39t.82,1.73q.42.91.83,1.84l.76,1.73.75-1.73q.4-.94.82-1.84t.83-1.73q.41-.82.74-1.39h1.7q.14,1.14.26,2.42t.22,2.62q.1,1.34.18,2.7t.15,2.65h-1.86q-.06-1.81-.15-3.74T117,14.73l-.39.83-.48,1-.52,1.16-.51,1.16-.46,1-.36.83h-1.41l-.36-.84-.46-1.06-.51-1.16-.52-1.15-.48-1-.39-.82q-.17,1.8-.25,3.72t-.14,3.74h-1.86q.06-1.29.15-2.67t.18-2.74q.1-1.36.22-2.63t.26-2.35Z"/><path d="M121.55,11.79h1.89V22.18h-1.89Z"/><path d="M132.22,22.18q-.39-.6-.9-1.26t-1.07-1.28q-.56-.62-1.16-1.17a10.88,10.88,0,0,0-1.19-1v4.67H126V11.79h1.89v4.29l1-1.06L130,13.88l1-1.12.87-1h2.26l-1,1.18L132,14.21l-1.18,1.24q-.59.62-1.16,1.17a14.08,14.08,0,0,1,1.28,1.12q.65.64,1.28,1.37t1.21,1.51q.58.79,1.06,1.57Z"/><path d="M139,22.3q-.82,0-1.67-.05a7.74,7.74,0,0,1-1.47-.22V11.94l.71-.11.76-.08.77,0h.73a10.17,10.17,0,0,1,1.75.14,4.45,4.45,0,0,1,1.4.47,2.45,2.45,0,0,1,.92.87,2.52,2.52,0,0,1,.33,1.33,2.2,2.2,0,0,1-.35,1.26,2.5,2.5,0,0,1-1,.84,2.74,2.74,0,0,1,1.39.93,2.57,2.57,0,0,1,.45,1.56,2.72,2.72,0,0,1-1.17,2.41A6.4,6.4,0,0,1,139,22.3ZM137.71,16H139a3.84,3.84,0,0,0,1.69-.31,1.12,1.12,0,0,0,.62-1.1,1.1,1.1,0,0,0-.64-1.06,3.75,3.75,0,0,0-1.66-.32h-.77l-.58,0Zm0,1.49v3.17l.67,0H139a7.27,7.27,0,0,0,1.09-.08,2.8,2.8,0,0,0,.87-.26,1.54,1.54,0,0,0,.58-.5,1.4,1.4,0,0,0,.22-.81,1.27,1.27,0,0,0-.65-1.23,3.83,3.83,0,0,0-1.79-.34Z"/><path d="M149.78,22.41A4.92,4.92,0,0,1,148,22.1a3.38,3.38,0,0,1-1.27-.86,3.51,3.51,0,0,1-.74-1.3,5.39,5.39,0,0,1-.24-1.65V11.79h1.91V18.1a4.08,4.08,0,0,0,.16,1.21,2.11,2.11,0,0,0,.45.82,1.79,1.79,0,0,0,.69.46,2.52,2.52,0,0,0,.89.15,2.59,2.59,0,0,0,.9-.15,1.78,1.78,0,0,0,.7-.46,2.11,2.11,0,0,0,.45-.82A4.05,4.05,0,0,0,152,18.1V11.79h1.91v6.49a5.24,5.24,0,0,1-.25,1.65,3.59,3.59,0,0,1-.75,1.3,3.36,3.36,0,0,1-1.28.86A5,5,0,0,1,149.78,22.41Z"/><path d="M163.64,11.79v1.63h-3.2v8.76h-1.91V13.42h-3.19V11.79Z"/><path d="M165.16,11.79H167V22.18h-1.89Z"/><path d="M175.82,22.18q-.39-.6-.9-1.26t-1.07-1.28q-.56-.62-1.16-1.17a10.88,10.88,0,0,0-1.19-1v4.67h-1.89V11.79h1.89v4.29l1-1.06,1.07-1.14,1-1.12.87-1h2.26l-1,1.18-1.14,1.24-1.18,1.24q-.59.62-1.16,1.17a14.08,14.08,0,0,1,1.28,1.12q.65.64,1.28,1.37T177,20.62q.58.79,1.06,1.57Z"/><path d="M185.66,22.18q-.39-.6-.9-1.26t-1.07-1.28q-.56-.62-1.16-1.17a10.88,10.88,0,0,0-1.19-1v4.67h-1.89V11.79h1.89v4.29l1-1.06,1.07-1.14,1-1.12.87-1h2.26l-1,1.18-1.14,1.24-1.18,1.24q-.59.62-1.16,1.17a14.08,14.08,0,0,1,1.28,1.12q.65.64,1.28,1.37t1.21,1.51q.58.79,1.06,1.57Z"/><path d="M189.29,22.18V11.79H196v1.6h-4.79V16h4.26v1.57h-4.26v3h5.15v1.61Z"/><path d="M205.16,22.18q-.51-.86-1.14-1.84t-1.31-2q-.67-1-1.37-1.94T200,14.74v7.44h-1.86V11.79h1.54q.6.63,1.29,1.49t1.39,1.79q.7.93,1.35,1.87t1.16,1.75v-6.9h1.88V22.18Z"/></svg>