<svg id="Website" xmlns="http://www.w3.org/2000/svg" viewBox="0 0 60 60"><defs><style>.cls-1{fill:none;stroke:#5a9678;stroke-linecap:round;stroke-linejoin:round;stroke-width:2.4px;}.cls-2{fill:#5a9678;}</style></defs><title>favicon</title><path class="cls-1" d="M20.1,35.7l.68-19.41s8.37-.59,9.1,3.9-8.38,5.21-8.38,5.21L32.1,35.7"/><path class="cls-1" d="M22.5,35.7,39.3,23.1c1,10.62.6,13.2-1.2,17.4-2.82,6.59-10.8,7.2-16.2,1.2"/><path class="cls-2" d="M35.63,35.32a.14.14,0,0,1,.14.12.14.14,0,0,1,0,.1.15.15,0,0,1-.11.06.14.14,0,0,1-.14-.12.14.14,0,0,1,.11-.16h0m0-1-.18,0a1.14,1.14,0,0,0,.18,2.26l.18,0a1.14,1.14,0,0,0-.18-2.26Z"/><path class="cls-2" d="M38.19,16.77a.14.14,0,0,1,.14.12.14.14,0,0,1-.14.16.14.14,0,0,1-.14-.12.14.14,0,0,1,0-.1.14.14,0,0,1,.09-.06h0m0-1-.18,0A1.14,1.14,0,0,0,38.19,18l.18,0a1.14,1.14,0,0,0-.18-2.26Z"/><path class="cls-2" d="M30,5A25,25,0,1,1,5,30,25,25,0,0,1,30,5m0-5A30,30,0,1,0,60,30,30,30,0,0,0,30,0Z"/></svg>